<svg id="Layer_1" data-name="Layer 1" xmlns="http://www.w3.org/2000/svg" xmlns:xlink="http://www.w3.org/1999/xlink" viewBox="0 0 316.99 239.04"><defs><style>.cls-1{fill:#00c0f3;}.cls-2{fill:#0092b8;}.cls-3{fill:url(#linear-gradient);}.cls-4{fill:none;}</style><linearGradient id="linear-gradient" x1="289.58" y1="297.66" x2="579.72" y2="297.66" gradientUnits="userSpaceOnUse"><stop offset="0" stop-color="#0092b8"/><stop offset="0.3" stop-color="#00c0f3"/><stop offset="0.7" stop-color="#00c0f3"/><stop offset="1" stop-color="#0092b8"/></linearGradient></defs><title>Final</title><path class="cls-1" d="M339.6,442.54a3.87,3.87,0,0,1-1.17,1.18,3.86,3.86,0,0,1-1.19-1.19,4.11,4.11,0,0,1,1.17-1.18A4.09,4.09,0,0,1,339.6,442.54Z" transform="translate(-275.99 -218.37)"/><path class="cls-1" d="M496.79,444.25a3.84,3.84,0,0,1-1.17,1.17,3.94,3.94,0,0,1-1.19-1.18,1.18,1.18,0,1,1,2.36,0Z" transform="translate(-275.99 -218.37)"/><path class="cls-1" d="M500,444.25a3.84,3.84,0,0,1-1.17,1.17,3.94,3.94,0,0,1-1.19-1.18,1.18,1.18,0,1,1,2.36,0Z" transform="translate(-275.99 -218.37)"/><path class="cls-1" d="M515.3,442.54a3.8,3.8,0,0,1-1.18,1.18,4,4,0,0,1-1.19-1.19,4.14,4.14,0,0,1,1.18-1.18A4.09,4.09,0,0,1,515.3,442.54Z" transform="translate(-275.99 -218.37)"/><path class="cls-1" d="M518.5,442.54a1.18,1.18,0,1,1-2.36,0,1.18,1.18,0,1,1,2.36,0Z" transform="translate(-275.99 -218.37)"/><path class="cls-1" d="M516.87,440.6a3.77,3.77,0,0,1-1.18,1.17,4.06,4.06,0,0,1-1.19-1.18,4.14,4.14,0,0,1,1.18-1.18A4.09,4.09,0,0,1,516.87,440.6Z" transform="translate(-275.99 -218.37)"/><path class="cls-1" d="M554.16,442.54a1.18,1.18,0,1,1-2.36,0,1.18,1.18,0,1,1,2.36,0Z" transform="translate(-275.99 -218.37)"/><path class="cls-1" d="M557.37,442.54a1.18,1.18,0,1,1-2.36,0,1.18,1.18,0,1,1,2.36,0Z" transform="translate(-275.99 -218.37)"/><path class="cls-1" d="M555.73,440.6a3.84,3.84,0,0,1-1.17,1.17,3.94,3.94,0,0,1-1.19-1.18,1.18,1.18,0,1,1,2.36,0Z" transform="translate(-275.99 -218.37)"/><path class="cls-1" d="M510.93,454.67a3.84,3.84,0,0,1-1.17,1.17,3.94,3.94,0,0,1-1.19-1.18,1.18,1.18,0,1,1,2.36,0Z" transform="translate(-275.99 -218.37)"/><path class="cls-2" d="M316,419.72a8.68,8.68,0,0,1-2.76-.38,4.84,4.84,0,0,1-1.94-1.17,3.58,3.58,0,0,1-.73-1,5.5,5.5,0,0,1-.39-1.09,5.58,5.58,0,0,1-.13-1c0-.33,0-.61,0-.85v-.27s0-.19,0-.54,0-.81,0-1.4,0-1.27,0-2,0-1.59,0-2.44,0-1.72,0-2.62,0-1.79-.09-2.64-.09-1.63-.16-2.34-.07-.73-.23-1.77c-.28-1.75,2.67-2.07,2.87-.52.17,1.35.16,1.1.23,1.83s.12,1.5.17,2.35.07,1.73.09,2.66,0,1.82,0,2.69,0,1.69,0,2.48v2.1c0,.62,0,1.12,0,1.52s0,.64,0,.72v.26a8,8,0,0,0,.05,1.14,1.3,1.3,0,0,0,.39.81,3.47,3.47,0,0,0,2.49.7H316a1.3,1.3,0,0,1,.55.12,1.67,1.67,0,0,1,.47.31,1.62,1.62,0,0,1,.31.46,1.41,1.41,0,0,1-.31,1.58A1.38,1.38,0,0,1,316,419.72Z" transform="translate(-275.99 -218.37)"/><path class="cls-2" d="M314.35,418.29a1.34,1.34,0,0,1,.12-.56,1.5,1.5,0,0,1,.33-.46,1.52,1.52,0,0,1,1.05-.41h13.49a1.29,1.29,0,0,1,.55.11,1.31,1.31,0,0,1,.46.3,1.47,1.47,0,0,1,.32.46,1.41,1.41,0,0,1-.31,1.58,1.38,1.38,0,0,1-1,.41h-13.5a1.41,1.41,0,0,1-.57-.11,1.45,1.45,0,0,1-.47-.3,1.62,1.62,0,0,1-.33-.46A1.31,1.31,0,0,1,314.35,418.29Z" transform="translate(-275.99 -218.37)"/><path class="cls-2" d="M337.57,407.27c.14.33.29.7.46,1.12s.32.88.46,1.36q1.36,4.2.34,6.55a5.4,5.4,0,0,1-3.69,3.1,5.33,5.33,0,0,1-1,.18c-.41.05-.83.08-1.26.1l-1.23,0h-3.16a1.38,1.38,0,0,1-1-.41,1.47,1.47,0,0,1,0-2,1.38,1.38,0,0,1,1-.41h2.73c.4,0,.81,0,1.22-.06s.81-.1,1.21-.17a6,6,0,0,0,1.09-.31,3.33,3.33,0,0,0,.87-.49,1.74,1.74,0,0,0,.57-.7,3.45,3.45,0,0,0,.17-1.79,15.15,15.15,0,0,0-.59-2.72c-.11-.31-.23-.65-.37-1s-.28-.71-.42-1,0,.1-.48-1.1a1.46,1.46,0,1,1,2.7-1.12" transform="translate(-275.99 -218.37)"/><path class="cls-2" d="M334.11,424.77a7.77,7.77,0,0,1-2.37,2.37,7.93,7.93,0,0,1-2.4-2.39,8.27,8.27,0,0,1,2.37-2.38A8.32,8.32,0,0,1,334.11,424.77Z" transform="translate(-275.99 -218.37)"/><path class="cls-2" d="M340.1,424.77a7.66,7.66,0,0,1-2.37,2.37,8,8,0,0,1-2.4-2.39,8.39,8.39,0,0,1,2.37-2.38A8.19,8.19,0,0,1,340.1,424.77Z" transform="translate(-275.99 -218.37)"/><path class="cls-2" d="M512.54,424.77a7.66,7.66,0,0,1-2.37,2.37,8,8,0,0,1-2.4-2.39,8.39,8.39,0,0,1,2.37-2.38A8.19,8.19,0,0,1,512.54,424.77Z" transform="translate(-275.99 -218.37)"/><path class="cls-2" d="M518.54,424.77a7.77,7.77,0,0,1-2.37,2.37,8,8,0,0,1-2.4-2.39,8.39,8.39,0,0,1,2.37-2.38A8.32,8.32,0,0,1,518.54,424.77Z" transform="translate(-275.99 -218.37)"/><path class="cls-2" d="M468.81,424.77a7.66,7.66,0,0,1-2.37,2.37,8,8,0,0,1-2.4-2.39,8.39,8.39,0,0,1,2.37-2.38A8.19,8.19,0,0,1,468.81,424.77Z" transform="translate(-275.99 -218.37)"/><path class="cls-2" d="M474.81,424.77a7.77,7.77,0,0,1-2.37,2.37,8,8,0,0,1-2.4-2.39,8.39,8.39,0,0,1,2.37-2.38A8.32,8.32,0,0,1,474.81,424.77Z" transform="translate(-275.99 -218.37)"/><path class="cls-2" d="M496.64,411.33a7.66,7.66,0,0,1-2.37,2.37,7.9,7.9,0,0,1-2.4-2.38,8.15,8.15,0,0,1,2.37-2.38A8.28,8.28,0,0,1,496.64,411.33Z" transform="translate(-275.99 -218.37)"/><path class="cls-2" d="M413.77,404.28a7.66,7.66,0,0,1-2.37,2.37,8,8,0,0,1-2.4-2.38,8.27,8.27,0,0,1,2.37-2.38A8.28,8.28,0,0,1,413.77,404.28Z" transform="translate(-275.99 -218.37)"/><path class="cls-2" d="M471.91,429.27a7.66,7.66,0,0,1-2.37,2.37,8,8,0,0,1-2.39-2.39,8.23,8.23,0,0,1,2.36-2.38A8.08,8.08,0,0,1,471.91,429.27Z" transform="translate(-275.99 -218.37)"/><path class="cls-2" d="M392,404.87a8.27,8.27,0,0,1-2.37-2.38,8,8,0,0,1,2.4-2.39,7.77,7.77,0,0,1,2.37,2.37A8.19,8.19,0,0,1,392,404.87Z" transform="translate(-275.99 -218.37)"/><path class="cls-2" d="M398,404.87a8.23,8.23,0,0,1-2.36-2.38A8,8,0,0,1,398,400.1a7.66,7.66,0,0,1,2.37,2.37A8.08,8.08,0,0,1,398,404.87Z" transform="translate(-275.99 -218.37)"/><path class="cls-2" d="M395.11,400.38a8.3,8.3,0,0,1-2.37-2.39,8,8,0,0,1,2.4-2.38,7.66,7.66,0,0,1,2.37,2.37A8.32,8.32,0,0,1,395.11,400.38Z" transform="translate(-275.99 -218.37)"/><path class="cls-2" d="M540.52,424.77a7.77,7.77,0,0,1-2.37,2.37,7.93,7.93,0,0,1-2.4-2.39,8.27,8.27,0,0,1,2.37-2.38A8.32,8.32,0,0,1,540.52,424.77Z" transform="translate(-275.99 -218.37)"/><path class="cls-2" d="M350.61,396.82c.07-.15.13-.31.21-.48s.15-.32.22-.46a4.34,4.34,0,0,1,1.09-1.19,2.92,2.92,0,0,1,1.27-.56,1.55,1.55,0,0,1,.32,0H354a4.17,4.17,0,0,1,1.16.16c.35.11.67.23,1,.35s.53.2.79.28a3.08,3.08,0,0,0,.84.13,1.29,1.29,0,0,0,.68-.16,2.9,2.9,0,0,0,.62-.41,4.29,4.29,0,0,0,.48-.47c.14-.15-.27.31.29-.35s2.13.52,1.66,1.14c-.23.3-.12.17-.22.29l-.29.34a6.32,6.32,0,0,1-.58.57,4.23,4.23,0,0,1-.75.54,4,4,0,0,1-.91.41,3.09,3.09,0,0,1-1.06.15,4.22,4.22,0,0,1-1.09-.16c-.34-.1-.66-.2-.95-.31l-.24-.09-.86-.29a2,2,0,0,0-.85,0,.88.88,0,0,0-.5.25,3.11,3.11,0,0,0-.41.53,3.43,3.43,0,0,0-.31.6,3.53,3.53,0,0,0-.15.39c-.29.85-2.29.33-1.86-.78" transform="translate(-275.99 -218.37)"/><path class="cls-2" d="M403.36,407.67c.17.37.35.79.53,1.26s.34,1,.49,1.48a13.34,13.34,0,0,1,.38,1.6,10.38,10.38,0,0,1,.14,1.64,9.83,9.83,0,0,1-.3,2.36,5.67,5.67,0,0,1-.87,1.91,4.16,4.16,0,0,1-1.53,1.29,5.08,5.08,0,0,1-2.27.47,3.18,3.18,0,0,1-.88-.13,4.46,4.46,0,0,1-.93-.36,4.33,4.33,0,0,1-.9-.61,4.14,4.14,0,0,1-.73-.83,4.86,4.86,0,0,1-2,1.46,7.5,7.5,0,0,1-2.33.48,4.36,4.36,0,0,1-1.24-.1,4.93,4.93,0,0,1-.92-.31,3,3,0,0,1-.78-.48,13,13,0,0,1-.14,2.5,10.07,10.07,0,0,1-.63,2.32,8.91,8.91,0,0,1-1.21,2.06,8,8,0,0,1-1.86,1.68,10.51,10.51,0,0,1-3.05,1.4,17.39,17.39,0,0,1-3.83.59H378a10.61,10.61,0,0,1-3.52-.55,8.16,8.16,0,0,1-4.66-4,8.8,8.8,0,0,1-1-3,9.74,9.74,0,0,1-.13-1.79c0-.6.05-1.17.11-1.73s.17-1.08.28-1.57.24-.94.35-1.33a18,18,0,0,1,1-2.55,6.07,6.07,0,0,1,.9-1.57c.68-1,3.11.38,2.32,1.71a8.1,8.1,0,0,0-.69,1.27,16.13,16.13,0,0,0-.75,2.06,15.69,15.69,0,0,0-.51,2.51,9.68,9.68,0,0,0,0,2.58,7.1,7.1,0,0,0,.19.91,5.92,5.92,0,0,0,.43,1.08,6.41,6.41,0,0,0,.73,1.11,4.9,4.9,0,0,0,1.12,1,6.11,6.11,0,0,0,1.59.7,7.8,7.8,0,0,0,2.17.27h.48a10.92,10.92,0,0,0,5-1.23,5.45,5.45,0,0,0,2.55-3.13,9.17,9.17,0,0,0,.42-2.41,13.24,13.24,0,0,0-.15-2.37,15,15,0,0,0-.52-2.2c-.23-.7-.47-1.33-.71-1.9s-.45-.84-.61-1.13a2.89,2.89,0,0,1-.26-.53c-.47-1.21,1.67-2.11,2.38-1.54a1.35,1.35,0,0,1,.45.83,5.11,5.11,0,0,0,.21.51c.11.26.17.4.33.74.26.61.54,1.2.82,1.77a8.08,8.08,0,0,0,1,1.52,4.24,4.24,0,0,0,1.21,1,2.93,2.93,0,0,0,1.56.35,2.39,2.39,0,0,0,1.24-.31,2.24,2.24,0,0,0,.76-.77,3.28,3.28,0,0,0,.39-1.13,11.48,11.48,0,0,0,.15-1.37c0-.48,0-1,0-1.49s0-.18,0-1.5,3-1.32,3,0v.58c0,.14,0,.28,0,.41s0,.55.06.92.06.78.12,1.2a11.56,11.56,0,0,0,.25,1.28,6.18,6.18,0,0,0,.41,1.17,2.92,2.92,0,0,0,.64.84,1.39,1.39,0,0,0,.92.32,1.48,1.48,0,0,0,.89-.29,2.32,2.32,0,0,0,.65-.76,4,4,0,0,0,.38-1.11,5.45,5.45,0,0,0,.09-1.29,8.58,8.58,0,0,0-.27-1.79c-.16-.57-.33-1.11-.52-1.62a14,14,0,0,0-.62-1.39l-.55-1.1c-.59-1.15,2-2.4,2.66-1.13" transform="translate(-275.99 -218.37)"/><path class="cls-2" d="M431.15,419.71a9.16,9.16,0,0,1-1.66-.18,18.19,18.19,0,0,1-1.91-.44,16,16,0,0,1-1.74-.61,5.42,5.42,0,0,1-1.17-.61c-.91-.6.27-3.32,1.21-2.81.66.35.8.46,1.31.68a11.83,11.83,0,0,0,1.62.57,12.75,12.75,0,0,0,1.78.36,8.7,8.7,0,0,0,1.76,0,5.45,5.45,0,0,0,1.58-.37,3,3,0,0,0,1.23-.89c.26-.3.29-.87.1-1.69a7.67,7.67,0,0,0-.52-1.5,12.77,12.77,0,0,0-.86-1.57,17.56,17.56,0,0,0-1.12-1.53,15.47,15.47,0,0,0-1.28-1.38,12.22,12.22,0,0,0-1.27-1.07A5.82,5.82,0,0,0,429,406c-.95-.5.46-3.06,1.32-2.59a11.78,11.78,0,0,1,1.55,1,12.87,12.87,0,0,1,1.55,1.27,18.36,18.36,0,0,1,1.58,1.7,18.87,18.87,0,0,1,1.37,1.89,17,17,0,0,1,1.06,1.95,9.61,9.61,0,0,1,.68,1.92,7.46,7.46,0,0,1,.17,1.47,5.14,5.14,0,0,1-.12,1.17,3.52,3.52,0,0,1-.33.9,3.68,3.68,0,0,1-.44.65,6.46,6.46,0,0,1-3.76,2.15,7.13,7.13,0,0,1-1.17.21C432,419.69,431.61,419.71,431.15,419.71Z" transform="translate(-275.99 -218.37)"/><path class="cls-2" d="M448,418.71a8.28,8.28,0,0,1-.37,2.48,10.58,10.58,0,0,1-1,2.31,13,13,0,0,1-1.58,2.11,18.79,18.79,0,0,1-2,1.89,20.42,20.42,0,0,1-2.26,1.65c-.8.5-1.26.73-2.43,1.37s-2.8-1.73-1.25-2.59c1.25-.7,1.4-.76,2.09-1.19a19.74,19.74,0,0,0,2-1.39,15,15,0,0,0,1.69-1.58,9.23,9.23,0,0,0,1.31-1.74,7.19,7.19,0,0,0,.8-1.88,5.38,5.38,0,0,0,.16-2v0c-.07-.55-.17-1.15-.31-1.79s-.3-1.27-.47-1.88-.12-.46-.28-1-.34-1.09-.63-2.09a1.44,1.44,0,0,1,2.75-.84c.49,1.46.73,2.09,1.08,2.89a10.88,10.88,0,0,0,1.1,1.94,4,4,0,0,0,1.18,1.1,2.61,2.61,0,0,0,1.34.36h.08a1.56,1.56,0,0,1,.57.11,1.65,1.65,0,0,1,.46.32,1.49,1.49,0,0,1,.31.46,1.46,1.46,0,0,1,.11.55,1.36,1.36,0,0,1-.42,1,1.42,1.42,0,0,1-1,.4h-.55a3.57,3.57,0,0,1-.73-.12,3.53,3.53,0,0,1-1.65-.93Z" transform="translate(-275.99 -218.37)"/><path class="cls-2" d="M449.13,418.29a1.21,1.21,0,0,1,.13-.56,1.5,1.5,0,0,1,.33-.46,1.35,1.35,0,0,1,.47-.3,1.43,1.43,0,0,1,.58-.11h13.49a1.29,1.29,0,0,1,.55.11,1.31,1.31,0,0,1,.46.3,1.65,1.65,0,0,1,.32.46,1.51,1.51,0,0,1,.11.56,1.36,1.36,0,0,1-.42,1,1.38,1.38,0,0,1-1,.41h-13.5a1.38,1.38,0,0,1-.57-.11,1.35,1.35,0,0,1-.47-.3,1.62,1.62,0,0,1-.33-.46A1.18,1.18,0,0,1,449.13,418.29Z" transform="translate(-275.99 -218.37)"/><path class="cls-2" d="M473.11,407.27l.45,1.12c.17.43.32.88.47,1.36.9,2.8,1,5,.33,6.55a5.72,5.72,0,0,1-4.69,3.28c-.41.05-.83.08-1.26.1l-1.23,0H464a1.34,1.34,0,0,1-1-.41,1.45,1.45,0,0,1,0-2,1.34,1.34,0,0,1,1-.41h2.74c.4,0,.8,0,1.21-.06s.81-.1,1.21-.17a5.78,5.78,0,0,0,1.09-.31,3.57,3.57,0,0,0,.88-.49,1.92,1.92,0,0,0,.57-.7,3.47,3.47,0,0,0,.16-1.79,15.15,15.15,0,0,0-.59-2.72c-.11-.31-.23-.65-.37-1s-.28-.71-.42-1,.21.41-.48-1.1,1.87-2.89,2.6-1.28" transform="translate(-275.99 -218.37)"/><path class="cls-2" d="M499.32,412c-1-2,1.59-3.17,2.44-1.55l.56,1c.16.3.35.63.63,1.21a12.11,12.11,0,0,0,1.37,2.14,6.77,6.77,0,0,0,1.35,1.34,3.24,3.24,0,0,0,1.21.58,5.29,5.29,0,0,0,1.08.13,1.41,1.41,0,0,1,1,.41,1.39,1.39,0,0,1,.41,1,1.42,1.42,0,0,1-.41,1,1.45,1.45,0,0,1-1,.41,6.82,6.82,0,0,1-3.49-.9,13.23,13.23,0,0,1-.07,2.26,11.82,11.82,0,0,1-.49,2.33,8.16,8.16,0,0,1-1.25,2.46,7.72,7.72,0,0,1-2.07,1.91,10.08,10.08,0,0,1-3,1.4,17.71,17.71,0,0,1-3.82.59h-.6a10.47,10.47,0,0,1-3.49-.55,9.09,9.09,0,0,1-2.83-1.61,8.7,8.7,0,0,1-1.85-2.39,9,9,0,0,1-.95-3,12,12,0,0,1-.11-1.79,13.68,13.68,0,0,1,.11-1.72,14.47,14.47,0,0,1,.26-1.58c.11-.5.22-.95.35-1.35a17.92,17.92,0,0,1,1-2.53,16.36,16.36,0,0,1,.88-1.58,1.42,1.42,0,0,1,2.36,1.57c-.26.48-.3.54-.47.87s-.34.72-.51,1.16-.33.92-.49,1.44a13.55,13.55,0,0,0-.39,1.64,12.52,12.52,0,0,0-.19,1.74,8.9,8.9,0,0,0,.08,1.72,8.55,8.55,0,0,0,.21.91,7.12,7.12,0,0,0,.42,1.09,6.41,6.41,0,0,0,.73,1.11,4.65,4.65,0,0,0,1.11,1,6.11,6.11,0,0,0,1.61.7,7.8,7.8,0,0,0,2.17.27h.5a11.13,11.13,0,0,0,5-1.25,5.37,5.37,0,0,0,2.55-3.11,9.37,9.37,0,0,0,.42-2.53,13.42,13.42,0,0,0-.7-4.55c-.22-.66-.51-1.4-.67-1.77a5.15,5.15,0,0,0-.27-.59l-.32-.6" transform="translate(-275.99 -218.37)"/><path class="cls-2" d="M506.46,418.29a1.39,1.39,0,0,1,.41-1,1.36,1.36,0,0,1,1-.42H509a19.83,19.83,0,0,0,2.36-.14,6.67,6.67,0,0,0,2-.55,3.37,3.37,0,0,0,1.35-1.07,2.72,2.72,0,0,0,.46-1.75c0-.54-.07-1.11-.14-1.7a19.58,19.58,0,0,0-.43-2c-.4-1.76,2.3-2.38,2.73-.77.17.69.17.69.25,1.07s.15.76.2,1.15.11.78.16,1.18.07.78.09,1.16.07.74.13,1.14a3.72,3.72,0,0,0,.37,1.11,2.48,2.48,0,0,0,.72.85,2,2,0,0,0,1.21.34,1.41,1.41,0,0,1,1,.41,1.36,1.36,0,0,1,.42,1,1.47,1.47,0,0,1-.11.56,1.81,1.81,0,0,1-.32.46,1.37,1.37,0,0,1-.45.3,1.29,1.29,0,0,1-.55.11,5.07,5.07,0,0,1-2.44-.53,4.94,4.94,0,0,1-1.58-1.34,4.55,4.55,0,0,1-1.36.87,10.45,10.45,0,0,1-1.84.58,19.23,19.23,0,0,1-2.1.32c-.73.07-1.44.1-2.15.1h-1.11a1.4,1.4,0,0,1-1.43-1.43Z" transform="translate(-275.99 -218.37)"/><path class="cls-2" d="M519,418.29a1.34,1.34,0,0,1,.12-.56,1.92,1.92,0,0,1,.33-.46,1.5,1.5,0,0,1,.48-.3,1.4,1.4,0,0,1,.58-.11h13.48a1.33,1.33,0,0,1,.56.11,1.41,1.41,0,0,1,.46.3,1.62,1.62,0,0,1,.31.46,1.34,1.34,0,0,1,.12.56,1.36,1.36,0,0,1-.42,1,1.42,1.42,0,0,1-1,.41h-13.5a1.36,1.36,0,0,1-.56-.11,1.5,1.5,0,0,1-.48-.3,2.15,2.15,0,0,1-.33-.46A1.31,1.31,0,0,1,519,418.29Z" transform="translate(-275.99 -218.37)"/><path class="cls-2" d="M541.25,407.27c.14.33.29.7.46,1.12s.32.88.47,1.36q1.35,4.2.33,6.55a5.4,5.4,0,0,1-3.68,3.1,6.67,6.67,0,0,1-1.55.28c-.5,0-1,0-1.41,0h-2.13a1.38,1.38,0,0,1-1-.41,1.45,1.45,0,0,1,0-2,1.38,1.38,0,0,1,1-.41h1.5c.52,0,1,0,1.49,0a6.51,6.51,0,0,0,1.32-.21,3.22,3.22,0,0,0,1.06-.54,2.55,2.55,0,0,0,.75-1,3.35,3.35,0,0,0,.17-1.79,15.15,15.15,0,0,0-.59-2.72c-.11-.31-.23-.65-.37-1l-.9-2.12a1.47,1.47,0,1,1,2.63-1.28" transform="translate(-275.99 -218.37)"/><path class="cls-2" d="M548.94,400.6c.18,2.12.68,5.58.75,8.71.1,5.17-.1,8.31-.24,10.37a1.44,1.44,0,1,1-2.88-.16c.13-1.93.41-5.77.29-8.72-.19-4.73-.58-7.37-.79-9.76S548.76,398.48,548.94,400.6Z" transform="translate(-275.99 -218.37)"/><path class="cls-2" d="M421.58,400.6c.18,2.12.67,5.58.74,8.71.11,5.17-.09,8.31-.23,10.37a1.44,1.44,0,1,1-2.88-.16c.12-1.93.41-5.77.29-8.72-.2-4.73-.59-7.37-.79-9.76S421.39,398.48,421.58,400.6Z" transform="translate(-275.99 -218.37)"/><path class="cls-2" d="M358.35,400.6c.19,2.12.68,5.58.75,8.71a102.69,102.69,0,0,1-.24,10.37,1.44,1.44,0,1,1-2.88-.16c.13-1.93.41-5.77.3-8.72-.2-4.73-.59-7.37-.79-9.76S358.17,398.48,358.35,400.6Z" transform="translate(-275.99 -218.37)"/><path class="cls-2" d="M557.78,410.21c.47,1.59.53,1.81.78,2.7.09.38.2.77.3,1.18s.21.82.3,1.23.18.81.24,1.19.13.75.17,1.08c0,.1,0,.23,0,.36s0,.29,0,.46a8.26,8.26,0,0,1-.37,2.47,10.55,10.55,0,0,1-1,2.3,14.22,14.22,0,0,1-1.58,2.12,18.79,18.79,0,0,1-2,1.89,21.84,21.84,0,0,1-2.27,1.64,24.93,24.93,0,0,1-2.42,1.37c-1.59.86-2.85-1.69-1.27-2.58a29.15,29.15,0,0,0,3-1.76,16.36,16.36,0,0,0,2.58-2.19,10.94,10.94,0,0,0,1.83-2.51,6,6,0,0,0,.68-2.75c0-.05,0-.13,0-.24l0-.33h0q0-.45-.15-1c-.07-.35-.14-.72-.23-1.09s-.18-.75-.28-1.13-.19-.74-.29-1.09c-.24-.82-.17-.58-.75-2.46S557.32,408.63,557.78,410.21Z" transform="translate(-275.99 -218.37)"/><path class="cls-2" d="M413.12,410.21c.46,1.59.53,1.81.77,2.7l.31,1.18q.17.62.3,1.23c.09.41.17.81.24,1.19s.12.75.16,1.08c0,.1,0,.23,0,.36s0,.29,0,.46a8.26,8.26,0,0,1-.37,2.47,10.1,10.1,0,0,1-1,2.3A13.56,13.56,0,0,1,412,425.3a18.79,18.79,0,0,1-2,1.89,21.71,21.71,0,0,1-2.26,1.64,27.68,27.68,0,0,1-2.42,1.37,1.44,1.44,0,1,1-1.28-2.58,25.29,25.29,0,0,0,3-1.76,17.32,17.32,0,0,0,2.58-2.19,11.19,11.19,0,0,0,1.82-2.51,5.93,5.93,0,0,0,.69-2.75c0-.05,0-.13,0-.24s0-.23,0-.33h0c0-.3-.07-.63-.14-1s-.15-.72-.24-1.09-.18-.75-.27-1.13-.2-.74-.3-1.09c-.23-.82-.17-.58-.74-2.46S412.65,408.63,413.12,410.21Z" transform="translate(-275.99 -218.37)"/><path class="cls-2" d="M348.32,410.21c.49,1.58.53,1.81.77,2.7l.31,1.18q.17.62.3,1.23c.09.41.17.81.24,1.19s.12.75.16,1.08c0,.1,0,.23,0,.36s0,.29,0,.46a8.26,8.26,0,0,1-.37,2.47,10.1,10.1,0,0,1-1,2.3,13.56,13.56,0,0,1-1.58,2.12,18.79,18.79,0,0,1-2,1.89,21.71,21.71,0,0,1-2.26,1.64,27.68,27.68,0,0,1-2.42,1.37c-1.59.86-2.86-1.69-1.28-2.58a29.5,29.5,0,0,0,3-1.76,17.32,17.32,0,0,0,2.58-2.19,11.19,11.19,0,0,0,1.82-2.51,5.93,5.93,0,0,0,.69-2.75c0-.05,0-.13,0-.24l0-.33h0c0-.3-.07-.63-.14-1s-.15-.72-.24-1.09-.18-.75-.27-1.13-.2-.74-.3-1.09c-.23-.82-.17-.58-.74-2.46A1.46,1.46,0,0,1,348.32,410.21Z" transform="translate(-275.99 -218.37)"/><path class="cls-1" d="M310.79,448c.37-.66,1.59,0,1.28.64l-.19.38c-.09.19-.18.43-.29.71s-.19.59-.29.93a7.21,7.21,0,0,0-.2,1.05,5.27,5.27,0,0,0,0,1.05,2.67,2.67,0,0,0,.26.95,2.88,2.88,0,0,0,2.61,1.38,4.18,4.18,0,0,0,3.18-.77,2.61,2.61,0,0,0,.53-.58,3.73,3.73,0,0,0,.35-.65,3.28,3.28,0,0,0,.19-.66,4.88,4.88,0,0,0,.08-.61,5.75,5.75,0,0,0-.06-1.3,11.38,11.38,0,0,0-.26-1.27,9.37,9.37,0,0,0-.29-1c-.11-.31,0-.13-.09-.26s-.09-.25-.08-.21a3.89,3.89,0,0,1-.15-.38c-.2-.59,1.19-1,1.36-.58l.14.34a5.2,5.2,0,0,0,.45.88c.2.33.38.63.56.9a1.54,1.54,0,0,0,.23.29,3.13,3.13,0,0,0,.32.3,5.22,5.22,0,0,1,.31-.54,6.44,6.44,0,0,1,.4-.62c.16-.21.32-.42.5-.64a7.13,7.13,0,0,1,.6-.64,6.4,6.4,0,0,1,1.43-1,5.4,5.4,0,0,1,1.59-.56,3.79,3.79,0,0,1,1.75.07,3,3,0,0,1,1.39.85,2.82,2.82,0,0,1,.65,1,2.68,2.68,0,0,1,.16,1.09,3.3,3.3,0,0,1-.46,1.51,3.58,3.58,0,0,1-1.12,1.14,5.21,5.21,0,0,1-.85.43,7.39,7.39,0,0,1-.88.27L325,452a7.25,7.25,0,0,1-.77.05,8.46,8.46,0,0,1-1.67-.08,8.23,8.23,0,0,1-1.48-.36,7.89,7.89,0,0,1-.72-.33,5.73,5.73,0,0,1-.64-.39c0,.36,0,.72,0,1.06a5.47,5.47,0,0,1-.47,1.89,4.42,4.42,0,0,1-1.19,1.62,5.25,5.25,0,0,1-3.52,1.15h-.36a2.34,2.34,0,0,1-.38,0,7.21,7.21,0,0,1-1.33-.23,4.5,4.5,0,0,1-1.09-.48,3.26,3.26,0,0,1-.81-.65,3.68,3.68,0,0,1-.58-.84,4.7,4.7,0,0,1-.42-2.07,6.26,6.26,0,0,1,.07-.95q.07-.48.21-1c.08-.29.16-.57.25-.84s.19-.51.28-.72m11.28,1.49a5.93,5.93,0,0,0,.73.19,5.75,5.75,0,0,0,.86.12,7,7,0,0,0,.92,0,7.3,7.3,0,0,0,.94-.09,5.24,5.24,0,0,0,.89-.21,3.66,3.66,0,0,0,.77-.37,1.91,1.91,0,0,0,.94-1.52,1.53,1.53,0,0,0,0-.3,2,2,0,0,0-.1-.26.93.93,0,0,0-.14-.22l-.13-.16a1.74,1.74,0,0,0-.46-.32,1.84,1.84,0,0,0-.48-.17,2,2,0,0,0-.48-.05,2.68,2.68,0,0,0-.42.05,3.8,3.8,0,0,0-1.18.42,5.44,5.44,0,0,0-1.09.78,5.2,5.2,0,0,0-.51.55,7,7,0,0,0-.43.56c-.13.18-.24.35-.34.52Z" transform="translate(-275.99 -218.37)"/><path class="cls-1" d="M334.19,452.05a4.74,4.74,0,0,1-1.4-.19,2.45,2.45,0,0,1-1-.6,1.66,1.66,0,0,1-.37-.52,3.14,3.14,0,0,1-.2-.56,3.24,3.24,0,0,1-.07-.52v-.84c0-.17,0-.41,0-.71s0-.64,0-1,0-.8,0-1.23,0-.87,0-1.33,0-.9-.05-1.33-.05-.83-.08-1.19,0-.35-.12-.89a.74.74,0,0,1,1.46-.23c.06.43.08.52.11.89s.06.76.09,1.19,0,.88,0,1.34,0,.92,0,1.37,0,.85,0,1.25V448c0,.31,0,.56,0,.76v.5a3.37,3.37,0,0,0,0,.57.64.64,0,0,0,.2.41,1.69,1.69,0,0,0,1.26.36h.07a.71.71,0,0,1,.28.06.79.79,0,0,1,.39.39.71.71,0,0,1-.16.8A.69.69,0,0,1,334.19,452.05Z" transform="translate(-275.99 -218.37)"/><path class="cls-1" d="M336.81,448.47c-.33.65-1.69.28-1.32-.61l.17-.33c.07-.12.26-.41.36-.56a3.09,3.09,0,0,1,.25-.31,4.07,4.07,0,0,1,1.23-1,2.76,2.76,0,0,1,1.36-.35,3.71,3.71,0,0,1,.73.08,5.6,5.6,0,0,1,.74.22,8.26,8.26,0,0,1,.77.31l.79.37.88.4a8.44,8.44,0,0,0,.9.36,5.18,5.18,0,0,0,1.82.35c.68.07.76,1.21.28,1.41s-.69.3-1,.46l-1.06.52c-.54.28-1.12.55-1.75.82s-1.28.51-2,.73a17.77,17.77,0,0,1-2.12.54,11.73,11.73,0,0,1-2.21.21h-1.47a.72.72,0,0,1-.29-.06.83.83,0,0,1-.23-.15.78.78,0,0,1-.16-.24.64.64,0,0,1-.06-.28.69.69,0,0,1,.22-.52.75.75,0,0,1,.52-.2h1.47a10.87,10.87,0,0,0,2-.19,16.75,16.75,0,0,0,1.94-.5c.63-.21,1.25-.45,1.86-.71s1.19-.54,1.75-.82c-.33-.12-.66-.25-1-.39l-.92-.42-.68-.31A5.42,5.42,0,0,0,340,447a3.91,3.91,0,0,0-.58-.19,2,2,0,0,0-.51-.07,1.33,1.33,0,0,0-.58.13,2.1,2.1,0,0,0-.5.34,2.83,2.83,0,0,0-.42.43,4.55,4.55,0,0,0-.31.44" transform="translate(-275.99 -218.37)"/><path class="cls-1" d="M354.88,452.05c-.44-.08-.55-1.39.08-1.46h5.62a.73.73,0,0,1,.52.2.69.69,0,0,1,.22.52.67.67,0,0,1-.22.52.7.7,0,0,1-.52.21h-1.77a2.77,2.77,0,0,1,.42.42,2.18,2.18,0,0,1,.24.41,1.51,1.51,0,0,1,.12.38,2.24,2.24,0,0,1,0,.34,2.2,2.2,0,0,1-.29,1.12,2.72,2.72,0,0,1-.74.85,4.25,4.25,0,0,1-1,.61,7.35,7.35,0,0,1-1.2.4,9.14,9.14,0,0,1-1.23.23c-.4,0-.77.06-1.09.06s-.88,0-1.34-.06a6.43,6.43,0,0,1-1.32-.26,4.15,4.15,0,0,1-1.17-.54,2.68,2.68,0,0,1-.87-.93,4.79,4.79,0,0,1-.71-3,10.64,10.64,0,0,1,.36-2.22,16.8,16.8,0,0,1,.9-2.61c.37-.73,1.69-.33,1.35.55a23.3,23.3,0,0,0-1.12,4,3.83,3.83,0,0,0,.42,2.55,2.27,2.27,0,0,0,.75.67,3.89,3.89,0,0,0,.94.33,5.25,5.25,0,0,0,1,.12l.85,0,.6,0c.27,0,.55-.06.86-.11s.61-.13.93-.22a4.26,4.26,0,0,0,.87-.34,2.08,2.08,0,0,0,.63-.47.94.94,0,0,0,.24-.64.35.35,0,0,0-.08-.21,1.06,1.06,0,0,0-.26-.26,3.52,3.52,0,0,0-.47-.3,7.4,7.4,0,0,0-.71-.31l-.51-.16-.48-.14-.41-.1" transform="translate(-275.99 -218.37)"/><path class="cls-1" d="M359.64,451.32a.66.66,0,0,1,.21-.5.75.75,0,0,1,.51-.22h0a2.4,2.4,0,0,0,1.05-.21,2.36,2.36,0,0,0,.75-.54,3.68,3.68,0,0,0,.55-.77c.16-.28.32-.58.47-.89s.25-.52.38-.76a4.36,4.36,0,0,1,.45-.67,2,2,0,0,1,1.61-.81,2.33,2.33,0,0,1,1.86.89,3.35,3.35,0,0,1,.71,1.79,3.73,3.73,0,0,1,0,1,4,4,0,0,1-.21.92,2.68,2.68,0,0,1-.57.88,1.84,1.84,0,0,1-.82.47,3,3,0,0,1-1.88-.2,6.49,6.49,0,0,1-1.5-.86l-.07.07a3.74,3.74,0,0,1-2.8,1.14h0a.69.69,0,0,1-.51-.21A.72.72,0,0,1,359.64,451.32Zm4.45-1.68a5.87,5.87,0,0,0,1.23.72,1.44,1.44,0,0,0,.92.12.49.49,0,0,0,.25-.17,1.13,1.13,0,0,0,.2-.36,1.91,1.91,0,0,0,.12-.51,2.68,2.68,0,0,0,0-.63s0-.09,0-.17-.05-.18-.08-.28a2.41,2.41,0,0,0-.15-.33,1.61,1.61,0,0,0-.21-.3,1.14,1.14,0,0,0-.3-.23.8.8,0,0,0-.39-.09.49.49,0,0,0-.28.09,1.27,1.27,0,0,0-.26.26q-.12.18-.27.45t-.33.63Z" transform="translate(-275.99 -218.37)"/><path class="cls-1" d="M373.19,452.05a4.67,4.67,0,0,1-1.39-.19,2.49,2.49,0,0,1-1-.6,1.84,1.84,0,0,1-.37-.52,2.47,2.47,0,0,1-.19-.56,2.4,2.4,0,0,1-.07-.52c0-.16,0-.31,0-.42v-.15s0-.09,0-.27,0-.41,0-.71v-2.26c0-.43,0-.87,0-1.33s0-.9,0-1.33-.05-.83-.09-1.19,0-.16-.11-.89,1.34-.95,1.45-.27c.07.44.08.56.12.93s.06.76.08,1.19,0,.88.05,1.34,0,.92,0,1.37,0,.85,0,1.25v1.83c0,.21,0,.33,0,.37v.13a4.67,4.67,0,0,0,0,.57.6.6,0,0,0,.2.41,1.68,1.68,0,0,0,1.25.36h.07a.67.67,0,0,1,.28.06.63.63,0,0,1,.23.16.73.73,0,0,1,.16.23.67.67,0,0,1,.06.28.7.7,0,0,1-.21.52A.72.72,0,0,1,373.19,452.05Z" transform="translate(-275.99 -218.37)"/><path class="cls-1" d="M372.44,451.32a.72.72,0,0,1,.73-.72h1.05a5,5,0,0,1,0-1,7,7,0,0,1,.23-1.14,9.1,9.1,0,0,1,.41-1.14,5.25,5.25,0,0,1,.59-1,3,3,0,0,1,.75-.73,1.84,1.84,0,0,1,.93-.31,1.22,1.22,0,0,1,.77.22,2.22,2.22,0,0,1,.6.62,4,4,0,0,1,.41.88,5.74,5.74,0,0,1,.21,1,4.33,4.33,0,0,1,0,.95,2.48,2.48,0,0,1-.19.76,3.1,3.1,0,0,1-.47.86,3.14,3.14,0,0,1-.7.66,4,4,0,0,1-.85.45,5.23,5.23,0,0,1-1,.26l.23.52c.1.21.21.42.33.62a4.27,4.27,0,0,0,.41.58,1.76,1.76,0,0,0,.45.42,2.74,2.74,0,0,1,.08-.91,3.21,3.21,0,0,1,.36-.83,3.8,3.8,0,0,1,.57-.7,3.44,3.44,0,0,1,.72-.55,3.3,3.3,0,0,1,.82-.36,2.79,2.79,0,0,1,.85-.13.72.72,0,0,1,.53.21.74.74,0,0,1,0,1,.72.72,0,0,1-.53.21h-.05a1.78,1.78,0,0,0-.78.21,2.37,2.37,0,0,0-.65.49,2.52,2.52,0,0,0-.46.69,2.26,2.26,0,0,0-.21.8,2.06,2.06,0,0,0,.11.81,2,2,0,0,0,.49.74c.35.38-.48,1.4-.92,1.13a9.89,9.89,0,0,1-1.4-1,8.42,8.42,0,0,1-1.08-1.17,7.52,7.52,0,0,1-.79-1.23,7.79,7.79,0,0,1-.53-1.25l-.07-.18h-1.32a.72.72,0,0,1-.73-.73Zm4.75-4.49a.72.72,0,0,0-.42.22,2.28,2.28,0,0,0-.39.5,5.53,5.53,0,0,0-.33.69,7.19,7.19,0,0,0-.24.79,7.27,7.27,0,0,0-.14.79,3.12,3.12,0,0,0,0,.69,1.61,1.61,0,0,0,.88-.12,2,2,0,0,0,.67-.51,2.65,2.65,0,0,0,.59-1.61,2.24,2.24,0,0,0-.15-.81A1.37,1.37,0,0,0,377.19,446.83Z" transform="translate(-275.99 -218.37)"/><path class="cls-1" d="M391.46,446.12c.09.21.18.44.28.7a7.71,7.71,0,0,1,.26.81,7.88,7.88,0,0,1,.2.87,5.1,5.1,0,0,1,.08.86,3.43,3.43,0,0,1-.18,1.15,2.36,2.36,0,0,1-.53.88,2.42,2.42,0,0,1-.9.56,3.61,3.61,0,0,1-1.25.19,1.88,1.88,0,0,1-.57-.09,2.61,2.61,0,0,1-.54-.24,2.74,2.74,0,0,1-.48-.36,2,2,0,0,1-.38-.44,3.29,3.29,0,0,1-1,.82,2.38,2.38,0,0,1-1.19.31,2.77,2.77,0,0,1-.56-.07,2.69,2.69,0,0,1-.56-.21,2.43,2.43,0,0,1-.49-.35,1.58,1.58,0,0,1-.33-.48,3.65,3.65,0,0,1-1,.74,3.2,3.2,0,0,1-1.35.29h-.12a.77.77,0,0,1-.26-.07.6.6,0,0,1-.22-.16.64.64,0,0,1-.14-.22.67.67,0,0,1-.06-.28.66.66,0,0,1,.06-.27.68.68,0,0,1,.14-.23.6.6,0,0,1,.22-.16.77.77,0,0,1,.26-.07,1.8,1.8,0,0,0,.79-.17,2.18,2.18,0,0,0,.62-.46,3.13,3.13,0,0,0,.48-.65,5.51,5.51,0,0,0,.36-.78,8.36,8.36,0,0,0,.25-.81l.17-.77c.15-.69,1.66-.35,1.45.36,0,0-.11.34-.16.51l-.14.5c0,.21-.1.43-.14.66a3.5,3.5,0,0,0-.06.62,2.34,2.34,0,0,0,0,.39,1.15,1.15,0,0,0,.13.34.59.59,0,0,0,.24.23.78.78,0,0,0,.39.09,1.16,1.16,0,0,0,.68-.2,2.1,2.1,0,0,0,.53-.54,4.23,4.23,0,0,0,.41-.76,8.69,8.69,0,0,0,.29-.86c.08-.29.15-.57.2-.84s0-.21.13-.72,1.53-.42,1.42.26l-.14.83c0,.23-.07.47-.1.73a6,6,0,0,0,0,.69,2.89,2.89,0,0,0,0,.52,1.75,1.75,0,0,0,.13.44.84.84,0,0,0,.25.31.64.64,0,0,0,.37.14,1.8,1.8,0,0,0,.57,0,1.06,1.06,0,0,0,.35-.14.72.72,0,0,0,.2-.18l.09-.14h0a.92.92,0,0,0,.14-.37,2.15,2.15,0,0,0,0-.45,3.82,3.82,0,0,0-.11-.91c-.08-.32-.17-.64-.27-1s-.22-.61-.34-.88-.05-.12-.29-.64c-.31-.67,1-1.24,1.29-.68" transform="translate(-275.99 -218.37)"/><path class="cls-2" d="M586.55,297.61c-.4-36.6-27.63-67.67-63.7-72-22.41-2.66-42.09,3.82-58.67,19.13-7.3,6.73-14.19,13.9-21.22,20.91-19.78,19.72-39.57,39.08-59.34,58.8-8.52,8.5-18.74,13-30.83,12.24A39.83,39.83,0,0,1,316.1,302.6c-2.66-21.14,14.2-43.09,34-45.28,11.48-1.26,16.53,1.13,19.13,2.19s7.4,3.7,6.22,6.9c-.64,1.75-2.91,2.85-5.91.5-13.18-7.17-25.88-3.17-35.35,5.35-12.31,11.16-15.11,28.46-7,41.82C335,325.5,344.59,330.77,358,329.86c8-.55,14.8-3.93,20.58-9.72,23.37-23.42,47-46.54,70.41-69.92,6.81-6.81,13.59-13.64,21.68-19a76.34,76.34,0,0,1,34.19-12.32c41.05-4.64,77.09,22.68,86.06,60.74,10.33,43.85-18.68,88.44-63,96-26.64,4.56-49.9-2.7-69.59-21.25q-3.18-3-6.26-6.1c-1.65-1.67-1.74-3.78-.31-5.15s3.27-1.25,5,.35c3.7,3.47,7.21,7.18,11.12,10.4,42.27,34.79,106.9,11.31,117-42.53C585.71,306.83,586,302.2,586.55,297.61Z" transform="translate(-275.99 -218.37)"/><path class="cls-2" d="M276,295.6c0-8.47,5.71-60.69,60.58-74.46,25.5-5.6,48.69.19,69.74,15.16,4.17,3,7.87,6.62,11.69,10.07,1.93,1.74,2.08,3.85.7,5.31s-3.55,1.3-5.47-.64c-13.65-13.77-30-22.23-49.27-24.7-31.54-4.05-60.45,12.06-74,41a71.92,71.92,0,0,0,49.71,101c20,4.42,38.59-.06,56-10.35,5.61-3.31,10.23-7.71,14.77-12.25q37.66-37.57,75.33-75.15c13.59-13.54,33.59-16,49.23-5.87,9.52,6.17,16.15,14.67,18.06,26.1a38.42,38.42,0,0,1-3.81,24c-5.92,11.69-14.39,19.79-26.64,22.51-7.8,1.74-18.76,1.36-25.95-3.59-2.47-1.7-3.92-4-2.16-5.86s3.74-.75,5.95.78c5.49,3.82,17.08,4.17,23.47,1.54,16.73-6.89,26.52-25.18,21.81-41-7.08-23.8-36.27-32.12-54.29-14.67-15.76,15.28-31.12,31-46.66,46.48-10.73,10.7-21.53,21.35-32.2,32.11-10.38,10.48-23,17-37.05,20.76-43.57,11.72-86.7-14.08-97-58A80.3,80.3,0,0,1,276,295.6Z" transform="translate(-275.99 -218.37)"/><path class="cls-2" d="M401.47,291a3.37,3.37,0,0,1-4.88.07c-4.29-4.2-8.22-8.21-12.54-12.44-3.05-2.82-1.81-1.79-4.84-4.71-1.56-1.38-2.06-3.28-.95-4.8a3.61,3.61,0,0,1,5-.59c1,.63,2.18,2.08,4.31,4.15,5.33,5.34,12.62,12.56,13.6,13.58A3.49,3.49,0,0,1,401.47,291Z" transform="translate(-275.99 -218.37)"/><path class="cls-2" d="M469.51,302.81a3.37,3.37,0,0,1,4.89-.08c4.28,4.21,8.22,8.21,12.54,12.44,3,2.82,1.8,1.8,4.83,4.71,1.56,1.38,2.06,3.28,1,4.81a3.6,3.6,0,0,1-5,.58c-1-.63-2.17-2.08-4.31-4.14-5.33-5.35-12.61-12.57-13.6-13.59A3.49,3.49,0,0,1,469.51,302.81Z" transform="translate(-275.99 -218.37)"/><path class="cls-1" d="M398.54,264.84c4.11,4,8,8,12,12.16,1.72,1.78,1.77,3.7.26,5.12s-3.4,1.19-5-.4c-4.11-4.12-8.17-8.3-12.25-12.45a3.29,3.29,0,0,1,0-4.7C395,263.23,396.86,263.19,398.54,264.84Z" transform="translate(-275.99 -218.37)"/><path class="cls-1" d="M464.93,312.38c4.19,4,8.07,8.11,12.12,12.28,1.65,1.7,1.68,3.79.22,5.14s-3.28,1.26-5-.43c-4.16-4.17-8.36-8.32-12.33-12.67a3.19,3.19,0,0,1,.51-4.51A3.49,3.49,0,0,1,464.93,312.38Z" transform="translate(-275.99 -218.37)"/><path class="cls-1" d="M459.28,335.86c-3.23-2.86-6.06-5.73-9-8.88a3.21,3.21,0,0,1-.07-4.5,3.25,3.25,0,0,1,4.44-.27c3.3,3,6.19,6,9.32,9.23a2.85,2.85,0,0,1-.05,4.23A3.18,3.18,0,0,1,459.28,335.86Z" transform="translate(-275.99 -218.37)"/><path class="cls-1" d="M420.17,272.38c.82-.86,1.61-2.81.4-4.08-1-1-5.72-5.85-8.75-8.72a3.37,3.37,0,0,0-4.55-.07,3.21,3.21,0,0,0-.35,4.42,120.81,120.81,0,0,0,8.83,8.77A3.4,3.4,0,0,0,420.17,272.38Z" transform="translate(-275.99 -218.37)"/><path class="cls-2" d="M429.45,263.18a3.32,3.32,0,0,1-3.94.14,33.13,33.13,0,0,1-5.13-5,3.05,3.05,0,0,1,.37-4.17,3.26,3.26,0,0,1,4.18.11c2.33,2.19,4.62,4.56,5.06,5C430.89,260.19,430.68,262.06,429.45,263.18Z" transform="translate(-275.99 -218.37)"/><path class="cls-2" d="M445.81,331c1.49,1.35,2.92,2.78,4.28,4.26a3.37,3.37,0,0,1,0,4.82,3.19,3.19,0,0,1-4.63-.08,29.88,29.88,0,0,1-4.5-4.64,3.19,3.19,0,0,1,.65-4.3A3.34,3.34,0,0,1,445.81,331Z" transform="translate(-275.99 -218.37)"/><path class="cls-3" d="M490.33,352.3a3.67,3.67,0,0,0,4.9-1.69c.84-1.84.11-3.09-1.83-4.28-5.59-2.7-11.72-7.22-12.84-8.69-.32-.42-3.29-2.67-.83-5.13,1.64-1.64,3.29-1.1,4.79.09s11.36,9.66,23,11,29.54,1.08,43.59-19c20-28.64,2.85-68.35-31.83-72.52-15.29-1.84-28.27,3.3-39.14,14.2Q441.3,305.23,402.31,344c-14.56,14.5-32.23,20.9-52.65,19.39-29.51-2.18-54.48-25.31-59.18-54.51-5.6-34.83,15.46-67.08,49.49-75.5,4.81-1.19,10.91-2.57,22.36-1.55,14.56,1.3,25.62,6.91,39.25,18,.92.75,1.86,1.5,2.71,2.34a3.43,3.43,0,0,1,.31,4.66,3.18,3.18,0,0,1-4.63.38c-3.21-2.94-15.29-12.65-20.47-14.08-1.75-.49-3.22-.67-4.52.85-.85,1-1.66,3.6,1.87,5.3,3.94,1.56,10.35,6.38,12.34,8.42,1.53,1.57,2.27,3.43,1,5s-3.05,1.58-5,0c-6-5-12.67-8.79-20.38-10.26-18.18-3.47-33.1,2.69-44.53,16.69-11.2,13.72-13.46,29.52-6.86,45.89s19.21,26.18,36.78,28.78c14.67,2.16,27.31-2.72,37.7-13,26.41-26.19,52.43-52.76,79.08-78.7,11.27-11,24.65-18.75,40.94-20.26,18.82-1.75,35.35,3.47,49.27,16.2,18.89,17.3,26.21,38.87,20.77,63.83-5.3,24.34-20.46,40.85-44.23,48.54-21,6.79-39.67,2.88-52.86-5.35a71.94,71.94,0,0,1-14.59-11.94,3.35,3.35,0,0,1-.24-4.73,3.14,3.14,0,0,1,4.83-.07S484.1,350.51,490.33,352.3Z" transform="translate(-275.99 -218.37)"/><line class="cls-4" x1="211.79" y1="97.59" x2="224.49" y2="110.31"/><path class="cls-1" d="M441.43,452.14a1.79,1.79,0,0,1-.91-.24,2,2,0,0,1-.7-.7l-.08-.13h.12l-.12.19-.11.14h0a1.91,1.91,0,0,1-1.54.74,1.91,1.91,0,0,1-.86-.21,2.28,2.28,0,0,1-.72-.59,2.52,2.52,0,0,1-.38-.64,2.86,2.86,0,0,1-.2-.79h0a1.66,1.66,0,0,1,0-.33c0-.12,0-.24,0-.37a7.24,7.24,0,0,1,.16-1.47,10.14,10.14,0,0,1,.32-1.13c.13-.37.29-.77.48-1.19s.41-.85.67-1.31.55-1,.89-1.48a1.63,1.63,0,0,0-.26-.25c-.23-.22.67-1.27,1-1l.15.15.17.17.1.08.1.1,1,.93a12.58,12.58,0,0,1,1.11,1.24,12.06,12.06,0,0,1,1.15,1.76,9.72,9.72,0,0,1,.79,1.85,4.78,4.78,0,0,1,.2,1.37v.23c0,.08,0,.15,0,.22a5.1,5.1,0,0,1-.21.94,3.17,3.17,0,0,1-.4.78,2.46,2.46,0,0,1-.78.66,2,2,0,0,1-1,.25Zm-1-3.86c0,.28,0,.28,0,.44s0,.34.08.53a3.16,3.16,0,0,0,.13.53,2.09,2.09,0,0,0,.19.48,1.29,1.29,0,0,0,.26.37.57.57,0,0,0,.33.16.89.89,0,0,0,.7-.36,1.81,1.81,0,0,0,.26-.61,3.19,3.19,0,0,0,.09-.77,3.83,3.83,0,0,0,0-.47,2.4,2.4,0,0,0-.11-.48,8.28,8.28,0,0,0-.6-1.43,12.13,12.13,0,0,0-.74-1.23q-.4-.57-.81-1.05t-.81-.84c-.28.47-.54.9-.76,1.3s-.4.78-.57,1.15-.3.7-.41,1a9.7,9.7,0,0,0-.28,1c0,.21-.08.42-.1.63a4.24,4.24,0,0,0,0,.58,2.7,2.7,0,0,0,.09.73,1.5,1.5,0,0,0,.25.54,1.05,1.05,0,0,0,.27.2.54.54,0,0,0,.25.08c.39,0,.69-.36.91-1.09.05-.18.09-.35.14-.52s.08-.32.1-.45,0-.09.09-.44S440.38,447.91,440.43,448.28Z" transform="translate(-275.99 -218.37)"/><path class="cls-1" d="M460,443c.18.16-.73,1.21-1,.95a2.12,2.12,0,0,0-.27-.24l-.28-.22a2.22,2.22,0,0,0-.37-.21,2.05,2.05,0,0,0-.41-.16,1.65,1.65,0,0,0-.44-.05h0a1.69,1.69,0,0,0-.62.17,1.65,1.65,0,0,0-.51.39,1.82,1.82,0,0,0-.22.38,1.29,1.29,0,0,0-.06.57,1.3,1.3,0,0,0,.23.54,1.09,1.09,0,0,0,.46.35,4.11,4.11,0,0,0,.47.11,2.44,2.44,0,0,0,.53.05h.31l.32,0a3.2,3.2,0,0,0,.81-.21,1.84,1.84,0,0,0,.52-.27c.26-.16.83.94.6,1.11a4,4,0,0,1-.75.45,3.92,3.92,0,0,1-1,.27l-.41,0h-.41a4.34,4.34,0,0,1-.8-.08,3.17,3.17,0,0,1-.72-.2,4.23,4.23,0,0,1-.42-.22,2.92,2.92,0,0,1-.38-.29l.07.47c.05.44.1.88.13,1.34s.07.9.08,1.35,0,.89,0,1.33,0,.91,0,1.14c0,.42-1.36.49-1.36,0s0-1.65-.05-2.53a25.13,25.13,0,0,0-.21-2.53,16.38,16.38,0,0,0-.47-2.26,7.37,7.37,0,0,0-.82-1.86c-.27-.38,1-1,1.14-.72s.31.53.45.82a8.1,8.1,0,0,1,.37.87,3,3,0,0,1,.2-.45,3.19,3.19,0,0,1,.3-.42h0a2.91,2.91,0,0,1,2.1-1,2.82,2.82,0,0,1,1,.13,3.76,3.76,0,0,1,1,.47,3.11,3.11,0,0,1,.49.37" transform="translate(-275.99 -218.37)"/><path class="cls-1" d="M451.92,443c.18.16-.74,1.21-1,.95a2.12,2.12,0,0,0-.27-.24l-.28-.22a2.71,2.71,0,0,0-.37-.21,2.05,2.05,0,0,0-.41-.16,1.65,1.65,0,0,0-.44-.05h0a1.68,1.68,0,0,0-1.13.56,1.82,1.82,0,0,0-.22.38,1.16,1.16,0,0,0-.06.57,1.3,1.3,0,0,0,.23.54,1.09,1.09,0,0,0,.46.35,4.11,4.11,0,0,0,.47.11,2.38,2.38,0,0,0,.53.05h.31l.32,0a3.2,3.2,0,0,0,.81-.21,1.84,1.84,0,0,0,.52-.27c.26-.16.83.94.6,1.11a4,4,0,0,1-.75.45,3.92,3.92,0,0,1-1,.27l-.41,0h-.41a4.34,4.34,0,0,1-.8-.08,3.17,3.17,0,0,1-.72-.2,3.36,3.36,0,0,1-.42-.22,2.92,2.92,0,0,1-.38-.29l.06.47c.06.44.11.88.14,1.34s.06.9.08,1.35,0,.89,0,1.33,0,.91,0,1.14c0,.42-1.36.49-1.36,0s0-1.65-.05-2.53a25.13,25.13,0,0,0-.21-2.53,16.38,16.38,0,0,0-.47-2.26,7.37,7.37,0,0,0-.82-1.86c-.27-.38,1-1,1.14-.72s.31.53.45.82a8.1,8.1,0,0,1,.37.87,3,3,0,0,1,.2-.45,3.19,3.19,0,0,1,.3-.42h0a2.91,2.91,0,0,1,2.1-1,2.82,2.82,0,0,1,1,.13,3.57,3.57,0,0,1,1,.47,3.25,3.25,0,0,1,.5.37" transform="translate(-275.99 -218.37)"/><path class="cls-1" d="M465.51,451.83a19.17,19.17,0,0,0-.28-2.66,17.23,17.23,0,0,0-.76-2.52,18,18,0,0,0-1.06-2.21c-.39-.69-.8-1.4-1.09-1.83s.89-1.14,1.13-.7.46.72.7,1.13.45.8.65,1.19.38.77.55,1.15.32.75.45,1.12l.13.36c0,.1.08.2.11.3l.09.32c0,.1.07.22.1.35.19-.59.39-1.19.62-1.79s.46-1.17.69-1.71.46-1,.69-1.46.38-.73.52-1,1.42.13,1.16.65c-.17.34-.37.77-.6,1.22s-.46.92-.69,1.41-.44,1-.65,1.53-.38,1.08-.54,1.65a16.3,16.3,0,0,0-.39,1.77c-.1.61-.16,1.46-.17,1.72C466.87,452.27,465.52,452.25,465.51,451.83Z" transform="translate(-275.99 -218.37)"/><path class="cls-1" d="M472.5,451.89c0-.36,0-1.62-.05-2.5a25.13,25.13,0,0,0-.21-2.53,16.38,16.38,0,0,0-.47-2.26,8,8,0,0,0-.82-1.86c-.25-.47.92-1.1,1.14-.73a12.86,12.86,0,0,1,.93,2.07,16,16,0,0,1,.57,2.68c.06.43.1.87.13,1.33s.07.91.09,1.36,0,.9,0,1.34,0,.71,0,1.1S472.5,452.24,472.5,451.89Z" transform="translate(-275.99 -218.37)"/><path class="cls-1" d="M480,441.94a17.73,17.73,0,0,0,.29,2.82,15.72,15.72,0,0,0,.76,2.49,17.2,17.2,0,0,0,1.05,2.2c.39.68,1,1.68,1.18,1.94s-.85,1.12-1.13.69-.55-.84-.78-1.25-.46-.79-.66-1.18-.38-.76-.54-1.13-.32-.75-.46-1.12c0-.12-.09-.24-.13-.35l-.1-.3-.1-.31c0-.11-.06-.22-.09-.36-.19.6-.4,1.19-.63,1.78s-.45,1.16-.69,1.69-.46,1-.69,1.45a11.56,11.56,0,0,1-.61,1.08c-.15.3-1.35-.26-1.13-.69l.67-1.28c.23-.44.46-.91.68-1.39s.45-1,.65-1.51a16.89,16.89,0,0,0,.94-3.39c.09-.61.12-1.26.16-1.88S480,441.34,480,441.94Z" transform="translate(-275.99 -218.37)"/><path class="cls-1" d="M485.69,451.26a.86.86,0,0,1,.67-.26.94.94,0,0,1,.69.26.85.85,0,0,1,.24.63.82.82,0,0,1-.24.61,1,1,0,0,1-.69.24.89.89,0,0,1-.67-.24.81.81,0,0,1-.23-.61A.85.85,0,0,1,485.69,451.26Zm0-5.54a1.06,1.06,0,0,1,1.37,0,.85.85,0,0,1,.23.64.78.78,0,0,1-.23.6,1,1,0,0,1-.69.25,1,1,0,0,1-.68-.25.81.81,0,0,1-.22-.6A.89.89,0,0,1,485.69,445.72Z" transform="translate(-275.99 -218.37)"/><path class="cls-1" d="M504.21,447.52a3.51,3.51,0,0,0-.09.78,4.71,4.71,0,0,0,.1.7,1.61,1.61,0,0,0,.33.65,2.22,2.22,0,0,0,1.84.69.77.77,0,0,1,.55,1.31.78.78,0,0,1-.55.22h-.06a3.58,3.58,0,0,1-3-1.28,2.4,2.4,0,0,1-.48-.84c-1.37,1.43-3.52,2.14-6.47,2.14a12.2,12.2,0,0,1-3.9-.56,4.1,4.1,0,0,1-2.25-1.73,3.36,3.36,0,0,1-.34-.78,4.72,4.72,0,0,1-.16-.8,5.21,5.21,0,0,1,0-.79,5.42,5.42,0,0,1,.13-.74c.06-.24.13-.46.19-.66s.08-.24.14-.39l.11-.31.13-.25c.31-.64,1.7,0,1.36.67a3.67,3.67,0,0,0-.14.37,1.57,1.57,0,0,0-.07.2,4.73,4.73,0,0,0-.17.56,3.38,3.38,0,0,0-.06,1.38,2,2,0,0,0,.26.69,2.86,2.86,0,0,0,1.67,1.19,10.2,10.2,0,0,0,3.1.41,12.2,12.2,0,0,0,2.92-.3,5.1,5.1,0,0,0,2-.95,3.31,3.31,0,0,0,.62-.62,4.23,4.23,0,0,0,.44-.69,5.78,5.78,0,0,0,.31-.72c.08-.24.12-.34.22-.71.19-.68,1.62-.29,1.48.4" transform="translate(-275.99 -218.37)"/><path class="cls-1" d="M505.8,451.11a.73.73,0,0,1,.21-.54.74.74,0,0,1,.55-.22h.13a3,3,0,0,0,1.89-.47,1.7,1.7,0,0,0,.59-1.4c0-.14,0-.29,0-.43s0-.3-.06-.46-.05-.32-.09-.5-.05-.22-.14-.55c-.13-.73,1.28-1.12,1.47-.37.1.38.1.4.14.57s0,.26.08.44.05.39.07.61,0,.46.06.73,0,.4.08.61a2.27,2.27,0,0,0,.19.59,1.3,1.3,0,0,0,.39.45,1,1,0,0,0,.64.18.93.93,0,0,1,.29,0,.7.7,0,0,1,.24.17.66.66,0,0,1,.17.24.73.73,0,0,1,.06.3.72.72,0,0,1-.06.29.62.62,0,0,1-.17.25.72.72,0,0,1-.24.16.68.68,0,0,1-.29.06,4,4,0,0,1-.71-.07,3.3,3.3,0,0,1-.58-.2,2.18,2.18,0,0,1-.46-.31,2.72,2.72,0,0,1-.37-.39,3,3,0,0,1-1.27.73,6.58,6.58,0,0,1-1.91.24h-.13a.78.78,0,0,1-.55-.22A.76.76,0,0,1,505.8,451.11Z" transform="translate(-275.99 -218.37)"/><path class="cls-1" d="M516.94,445.32l.21.54c.09.22.17.46.25.72a5,5,0,0,1,.18,3.47,3,3,0,0,1-2.49,1.74c-.22,0-.44,0-.67,0l-.65,0H512.1a.77.77,0,0,1-.77-.76.75.75,0,0,1,.23-.55.73.73,0,0,1,.54-.21h1.45l.64,0,.64-.09a3.28,3.28,0,0,0,.58-.17,1.72,1.72,0,0,0,.46-.26.83.83,0,0,0,.3-.37,1.72,1.72,0,0,0,.09-.95A8.19,8.19,0,0,0,516,447c-.06-.16-.12-.34-.2-.54s-.15-.37-.22-.54-.06-.13-.26-.58c-.35-.81,1.06-1.31,1.41-.62A4.24,4.24,0,0,1,516.94,445.32Z" transform="translate(-275.99 -218.37)"/><path class="cls-1" d="M523.19,444.85c-.53-.39.51-1.58,1-1.16l.25.21.3.28.56.54c.22.21.43.44.65.69a9.3,9.3,0,0,1,1.42,2,4,4,0,0,1,.47,1.74,2.71,2.71,0,0,1-.35,1.39,2.4,2.4,0,0,1-1,.92,2.37,2.37,0,0,1-.5.2l-.49.12-.44.05h-.54a3.15,3.15,0,0,1-.37,0,4.33,4.33,0,0,1-.51-.11,3.28,3.28,0,0,1-.57-.21,2.66,2.66,0,0,1-1.12-.93,2.46,2.46,0,0,1-.38-1.39,4.68,4.68,0,0,1,1.26-2.92,7,7,0,0,1,.49-.55l.42-.4m1.07,1.1-.53.51a8,8,0,0,0-.56.69,4.24,4.24,0,0,0-.44.78,1.79,1.79,0,0,0-.19.79,1.94,1.94,0,0,0,0,.24,1,1,0,0,0,.09.25,1,1,0,0,0,.19.23,1,1,0,0,0,.33.21,1.21,1.21,0,0,0,.3.11l.29.07.24,0h.36l.28,0a1.7,1.7,0,0,0,.31-.06l.31-.11a1,1,0,0,0,.41-.38,1.09,1.09,0,0,0,.13-.57,2.6,2.6,0,0,0-.39-1.21,8.64,8.64,0,0,0-1.12-1.53h0Z" transform="translate(-275.99 -218.37)"/><path class="cls-1" d="M532,446.83c.14.48.28.95.41,1.42.05.2.1.41.16.63s.11.43.16.65.09.43.13.63.06.4.08.57,0,.13,0,.2,0,.15,0,.24a4.48,4.48,0,0,1-.2,1.31,5.79,5.79,0,0,1-.55,1.22,8,8,0,0,1-.84,1.12,10.06,10.06,0,0,1-1.05,1,13.27,13.27,0,0,1-1.21.87,8.48,8.48,0,0,1-1.1.63.77.77,0,0,1-.82-1.29,17.44,17.44,0,0,0,1.55-.92A9.12,9.12,0,0,0,530.1,454a5.67,5.67,0,0,0,1-1.33,3.19,3.19,0,0,0,.37-1.46s0-.07,0-.13,0-.12,0-.17h0a3.67,3.67,0,0,0-.08-.52c0-.19-.07-.38-.12-.58l-.15-.6-.15-.58c-.13-.43-.17-.61-.4-1.3C530.21,446.4,531.68,445.94,532,446.83Z" transform="translate(-275.99 -218.37)"/><path class="cls-1" d="M538.29,451.87a4.88,4.88,0,0,1-1.47-.2,2.66,2.66,0,0,1-1-.63,2.09,2.09,0,0,1-.4-.55,3.32,3.32,0,0,1-.2-.58,2.67,2.67,0,0,1-.07-.54c0-.18,0-.33,0-.45v-.15s0-.1,0-.28,0-.43,0-.75v-2.37c0-.45,0-.91,0-1.39s0-1,0-1.4,0-.71-.07-1.09a2.68,2.68,0,0,1-.06-.67c0-.83,1.49-.88,1.54,0,.06.39,0,.2.06.58s0,.5.06.95,0,.92,0,1.41,0,1,0,1.43v3.75a3.92,3.92,0,0,0,0,.61.7.7,0,0,0,.21.43,1.87,1.87,0,0,0,1.32.37h.07a.72.72,0,0,1,.29.06.7.7,0,0,1,.24.17.81.81,0,0,1,.17.24.78.78,0,0,1-.16.84A.77.77,0,0,1,538.29,451.87Z" transform="translate(-275.99 -218.37)"/><path class="cls-1" d="M547.35,450.35a.75.75,0,0,1,.55.22.76.76,0,0,1,.21.54.72.72,0,0,1-.21.53.76.76,0,0,1-.55.23,2.05,2.05,0,0,1-1.73-.77,1.64,1.64,0,0,1-1.62.72,6.76,6.76,0,0,1-3-1.21,2.31,2.31,0,0,1-.65.63,3.52,3.52,0,0,1-2.09.63.71.71,0,0,1-.54-.23.69.69,0,0,1-.22-.53.73.73,0,0,1,.22-.54.7.7,0,0,1,.54-.22,2.42,2.42,0,0,0,1.94-1.13,6,6,0,0,0,.57-.94q.08-.16.21-.42l0-.1.05-.1.08-.16.18-.36c.08-.13.14-.25.21-.35a3.21,3.21,0,0,1,.47-.65,2,2,0,0,1,1.51-.65,2.34,2.34,0,0,1,1.82.87,3.82,3.82,0,0,1,.9,2,3.1,3.1,0,0,1,0,.75,1.74,1.74,0,0,0,.35.9A.9.9,0,0,0,547.35,450.35Zm-3.53-.05a.84.84,0,0,0,.89-.27,1.55,1.55,0,0,0,.2-.88,2.72,2.72,0,0,1,0-.28v-.08a2.33,2.33,0,0,0-.46-1.21,1.17,1.17,0,0,0-.91-.56c-.27,0-.56.29-.88.87a7.61,7.61,0,0,0-.39.77l-.09.19-.09.19-.16.34A5.86,5.86,0,0,0,543.82,450.3Z" transform="translate(-275.99 -218.37)"/><path class="cls-1" d="M546.69,451.11a.71.71,0,0,1,.06-.28.61.61,0,0,1,.15-.24.66.66,0,0,1,.23-.17.89.89,0,0,1,.28-.07,1.83,1.83,0,0,0,.82-.18,2.07,2.07,0,0,0,.65-.48,3.21,3.21,0,0,0,.5-.69,5,5,0,0,0,.38-.81,8.34,8.34,0,0,0,.26-.85c.07-.29.1-.44.18-.81.23-.83,1.78-.39,1.51.39l-.13.42c-.06.19-.11.4-.17.63a7,7,0,0,0-.15.69,3.83,3.83,0,0,0-.06.65,1.84,1.84,0,0,0,0,.41,1,1,0,0,0,.13.35.63.63,0,0,0,.26.25.8.8,0,0,0,.41.1,1.27,1.27,0,0,0,.71-.22,2.34,2.34,0,0,0,.56-.57,3.92,3.92,0,0,0,.42-.79,6.78,6.78,0,0,0,.3-.9c.09-.3.16-.6.22-.89s.06-.29.13-.74c.11-.72,1.55-.52,1.49.27-.06.36-.11.62-.14.86s-.08.5-.11.77a6.71,6.71,0,0,0,0,.72,3.12,3.12,0,0,0,0,.55,1.31,1.31,0,0,0,.14.46.89.89,0,0,0,.25.32.76.76,0,0,0,.39.16,2,2,0,0,0,.6,0,1.29,1.29,0,0,0,.37-.15.56.56,0,0,0,.21-.19l.09-.14h0a1.32,1.32,0,0,0,.15-.39,2.35,2.35,0,0,0,0-.47,4.19,4.19,0,0,0-.12-.95c-.08-.34-.17-.68-.28-1s-.23-.64-.35-.92a4.89,4.89,0,0,0-.31-.67c-.36-.69,1-1.35,1.39-.66l.17.36c.07.14.1.21.19.43s.19.45.3.72.19.55.27.85.15.6.21.91a5.8,5.8,0,0,1,.08.91,3.53,3.53,0,0,1-.19,1.21,2.4,2.4,0,0,1-.56.92,2.45,2.45,0,0,1-.93.58,3.78,3.78,0,0,1-1.32.2,2,2,0,0,1-.59-.09,2.94,2.94,0,0,1-.57-.26,2.59,2.59,0,0,1-.5-.37,2.17,2.17,0,0,1-.4-.46,3.71,3.71,0,0,1-1.05.86A2.64,2.64,0,0,1,552,452a3.26,3.26,0,0,1-.6-.07,2.89,2.89,0,0,1-.58-.22,2.08,2.08,0,0,1-.51-.37,1.46,1.46,0,0,1-.35-.5,3.65,3.65,0,0,1-1.06.77,3.34,3.34,0,0,1-1.41.3h-.12a.55.55,0,0,1-.28-.07.63.63,0,0,1-.23-.16.55.55,0,0,1-.15-.24A.68.68,0,0,1,546.69,451.11Z" transform="translate(-275.99 -218.37)"/></svg>