<?xml version="1.0" standalone="no"?>
<!DOCTYPE svg PUBLIC "-//W3C//DTD SVG 20010904//EN"
 "http://www.w3.org/TR/2001/REC-SVG-20010904/DTD/svg10.dtd">
<svg version="1.0" xmlns="http://www.w3.org/2000/svg"
 width="732.000000pt" height="732.000000pt" viewBox="0 0 732.000000 732.000000"
 preserveAspectRatio="xMidYMid meet">
<metadata>
Created by potrace 1.11, written by Peter Selinger 2001-2013
</metadata>
<g transform="translate(0.000000,732.000000) scale(0.100000,-0.100000)"
fill="#000000" stroke="none">
<path d="M1813 6820 c-44 -189 -247 -369 -455 -403 l-73 -13 -22 -89 c-12 -50
-22 -93 -23 -96 0 -3 16 -6 37 -7 70 -3 154 -41 211 -95 153 -147 120 -426
-73 -611 -89 -85 -190 -138 -302 -157 -37 -6 -71 -17 -75 -23 -7 -10 -18 -57
-33 -134 -2 -12 -6 -26 -9 -31 -4 -5 13 -12 36 -16 115 -17 194 -62 246 -137
35 -51 62 -135 62 -192 l0 -41 985 1 c541 0 987 3 990 6 5 5 59 226 81 328 3
14 6 30 8 35 2 6 7 29 11 53 6 33 12 42 29 43 11 0 255 1 541 1 453 0 528 -2
585 -16 175 -45 290 -203 278 -382 -4 -63 -3 -64 22 -65 14 0 135 -2 270 -4
135 -2 263 -6 285 -10 22 -3 54 -8 70 -11 399 -61 772 -255 1010 -527 33 -37
65 -74 71 -80 35 -39 131 -194 172 -279 26 -54 49 -98 52 -98 3 1 18 20 35 43
145 206 269 449 345 677 31 91 86 312 96 385 3 17 7 40 9 52 27 124 27 473 0
618 -3 17 -8 39 -10 50 -42 232 -178 517 -330 695 -264 308 -648 502 -1085
546 -41 4 -967 8 -2058 8 l-1983 1 -6 -25z"/>
<path d="M1295 4618 c-78 -182 -271 -323 -465 -341 l-35 -3 -22 -94 c-12 -52
-21 -95 -20 -97 2 -1 19 -5 38 -7 62 -8 93 -18 137 -43 315 -180 145 -702
-263 -807 -32 -9 -72 -16 -87 -16 -29 0 -31 -4 -57 -120 -17 -71 -15 -80 17
-80 15 0 56 -9 90 -21 123 -42 211 -160 218 -293 2 -34 3 -63 4 -66 0 -4 1860
-5 1956 -1 17 1 23 9 26 34 3 17 15 73 26 122 12 50 33 140 47 200 15 61 28
117 30 125 2 8 4 17 4 20 1 3 247 5 548 4 579 -1 591 -2 683 -49 140 -72 218
-248 186 -417 -5 -28 -3 -38 6 -39 7 -1 105 -1 218 -1 233 0 340 7 455 27 44
8 95 17 114 20 67 11 249 65 356 105 372 138 723 367 1017 663 48 49 109 114
136 145 56 64 57 46 -11 192 -33 71 -128 233 -147 250 -3 3 -23 28 -45 55 -67
84 -144 159 -251 245 -130 105 -438 249 -586 275 -17 3 -34 8 -38 10 -4 2 -38
9 -76 15 -38 6 -80 13 -94 16 -14 3 -154 8 -311 11 l-286 5 -13 -33 c-25 -64
-101 -168 -166 -227 -77 -71 -172 -123 -275 -152 -72 -19 -96 -20 -620 -18
l-545 3 43 185 c24 102 45 197 48 213 l5 27 -988 0 -988 0 -19 -42z"/>
<path d="M6730 3512 c0 -14 -258 -266 -350 -342 -215 -177 -469 -334 -725
-447 -133 -59 -412 -146 -535 -167 -19 -3 -46 -8 -60 -11 -14 -3 -43 -7 -65
-10 -22 -3 -56 -8 -75 -11 -19 -4 -163 -8 -320 -11 -245 -4 -286 -7 -295 -20
-94 -148 -156 -214 -264 -280 -38 -23 -97 -52 -132 -65 -63 -22 -69 -22 -631
-26 -461 -2 -568 -1 -568 10 0 7 4 29 10 48 5 19 11 46 13 60 3 14 10 45 17
70 13 49 16 60 30 133 5 27 12 53 15 58 4 5 -383 9 -987 9 l-993 0 -14 -33
c-73 -169 -267 -312 -452 -334 l-47 -6 -22 -89 c-21 -81 -21 -102 -2 -103 134
-10 238 -78 293 -192 32 -67 37 -183 11 -269 -66 -216 -271 -389 -484 -407
-45 -4 -45 -4 -52 -42 -4 -17 -12 -57 -20 -90 -8 -33 -13 -61 -11 -63 2 -2 18
-5 37 -8 195 -27 313 -166 301 -356 l-3 -58 2067 0 c2002 0 2071 1 2169 19
429 82 828 271 1196 566 113 90 316 287 383 370 22 27 48 59 58 70 11 11 50
63 87 115 206 288 336 565 415 886 21 82 39 159 41 172 19 112 24 144 30 192
17 140 7 407 -21 540 -19 94 -29 130 -37 130 -4 0 -8 -4 -8 -8z"/>
</g>
</svg>
